<mxfile host="app.diagrams.net" modified="2023-12-10T12:35:34.193Z" agent="Mozilla/5.0 (Windows NT 10.0; Win64; x64; rv:120.0) Gecko/20100101 Firefox/120.0" etag="YJvBH9tL2-BrIewSslmi" version="22.1.7" type="github">
  <diagram name="Страница — 1" id="2Xn_VqdC8c4nbmi3Tanu">
    <mxGraphModel dx="1434" dy="884" grid="1" gridSize="10" guides="1" tooltips="1" connect="1" arrows="1" fold="1" page="1" pageScale="1" pageWidth="827" pageHeight="1169" math="0" shadow="0">
      <root>
        <mxCell id="0" />
        <mxCell id="1" parent="0" />
        <mxCell id="0MY74Lyk_3eraN85kgKc-1" value="Actor" style="shape=umlActor;verticalLabelPosition=bottom;verticalAlign=top;html=1;outlineConnect=0;direction=east;" parent="1" vertex="1">
          <mxGeometry x="720" y="237.5" width="30" height="60" as="geometry" />
        </mxCell>
        <mxCell id="H_BK96IZtJJue5SlLHCH-1" value="" style="group" vertex="1" connectable="0" parent="1">
          <mxGeometry x="151.54" y="16.3" width="196.53" height="143.7" as="geometry" />
        </mxCell>
        <mxCell id="YC_wV94x8AY61sDzbHoF-13" value="" style="verticalLabelPosition=bottom;verticalAlign=top;html=1;shape=mxgraph.basic.cone2;dx=0.5;dy=0.9;rotation=31;" parent="H_BK96IZtJJue5SlLHCH-1" vertex="1">
          <mxGeometry x="133.6385697867326" y="12.924844312222781" width="51.774599705648946" height="57.52572830840639" as="geometry" />
        </mxCell>
        <mxCell id="YC_wV94x8AY61sDzbHoF-12" value="" style="verticalLabelPosition=bottom;verticalAlign=top;html=1;shape=mxgraph.basic.cone2;dx=0.5;dy=0.9;rotation=-30;" parent="H_BK96IZtJJue5SlLHCH-1" vertex="1">
          <mxGeometry x="10.913592706675834" y="9.089795758329021" width="51.774599705648946" height="57.52572830840639" as="geometry" />
        </mxCell>
        <mxCell id="YC_wV94x8AY61sDzbHoF-2" value="" style="ellipse;whiteSpace=wrap;html=1;container=1;" parent="H_BK96IZtJJue5SlLHCH-1" vertex="1">
          <mxGeometry x="9.379530493175123" y="40.15368904486847" width="178.3347323194575" height="103.5463109551315" as="geometry" />
        </mxCell>
        <mxCell id="YC_wV94x8AY61sDzbHoF-3" value="" style="ellipse;whiteSpace=wrap;html=1;" parent="H_BK96IZtJJue5SlLHCH-1" vertex="1">
          <mxGeometry x="41.594836976690026" y="80.80520371614233" width="34.516399803765964" height="15.340194215575039" as="geometry" />
        </mxCell>
        <mxCell id="YC_wV94x8AY61sDzbHoF-4" value="" style="ellipse;whiteSpace=wrap;html=1;fillColor=#000000;" parent="H_BK96IZtJJue5SlLHCH-1" vertex="1">
          <mxGeometry x="55.017881344821234" y="80.80520371614233" width="7.6703110675035475" height="15.340194215575039" as="geometry" />
        </mxCell>
        <mxCell id="YC_wV94x8AY61sDzbHoF-5" value="" style="ellipse;whiteSpace=wrap;html=1;" parent="H_BK96IZtJJue5SlLHCH-1" vertex="1">
          <mxGeometry x="118.29794765172552" y="80.80520371614233" width="34.516399803765964" height="15.340194215575039" as="geometry" />
        </mxCell>
        <mxCell id="YC_wV94x8AY61sDzbHoF-6" value="" style="ellipse;whiteSpace=wrap;html=1;fillColor=#000000;" parent="H_BK96IZtJJue5SlLHCH-1" vertex="1">
          <mxGeometry x="131.72099201985674" y="80.80520371614233" width="9.587888834379434" height="15.340194215575039" as="geometry" />
        </mxCell>
        <mxCell id="YC_wV94x8AY61sDzbHoF-10" value="" style="verticalLabelPosition=bottom;verticalAlign=top;html=1;shape=mxgraph.basic.heart;rotation=-180;fillColor=#FFFFFF;" parent="H_BK96IZtJJue5SlLHCH-1" vertex="1">
          <mxGeometry x="68.82444126632763" y="86.17427169159359" width="59.44491077315249" height="40.268009815884476" as="geometry" />
        </mxCell>
        <mxCell id="YC_wV94x8AY61sDzbHoF-11" value="" style="verticalLabelPosition=bottom;verticalAlign=top;html=1;shape=mxgraph.basic.arc;startAngle=0.3474883799639614;endAngle=0.649668497640334;" parent="H_BK96IZtJJue5SlLHCH-1" vertex="1">
          <mxGeometry x="86.84967227496095" y="101.13096105177925" width="23.010933202510643" height="30.680388431150078" as="geometry" />
        </mxCell>
        <mxCell id="YC_wV94x8AY61sDzbHoF-14" value="" style="verticalLabelPosition=bottom;verticalAlign=top;html=1;shape=mxgraph.basic.cone2;dx=0.53;dy=0.9;fillColor=#000000;" parent="H_BK96IZtJJue5SlLHCH-1" vertex="1">
          <mxGeometry x="89.24664448355581" y="107.84229602109333" width="18.216988785320925" height="13.42266993862816" as="geometry" />
        </mxCell>
        <mxCell id="YC_wV94x8AY61sDzbHoF-15" value="" style="verticalLabelPosition=bottom;verticalAlign=top;html=1;shape=mxgraph.basic.cone2;dx=0.53;dy=0.9;fillColor=#FFFFFF;strokeColor=#FFFFFF;" parent="H_BK96IZtJJue5SlLHCH-1" vertex="1">
          <mxGeometry x="89.24664448355581" y="80.99695614383701" width="18.216988785320925" height="13.42266993862816" as="geometry" />
        </mxCell>
        <mxCell id="YC_wV94x8AY61sDzbHoF-25" value="" style="endArrow=none;html=1;rounded=0;" parent="H_BK96IZtJJue5SlLHCH-1" edge="1">
          <mxGeometry width="50" height="50" relative="1" as="geometry">
            <mxPoint x="118.29794765172552" y="112.63610671346053" as="sourcePoint" />
            <mxPoint x="152.8143474554915" y="104.96600960567301" as="targetPoint" />
          </mxGeometry>
        </mxCell>
        <mxCell id="YC_wV94x8AY61sDzbHoF-26" value="" style="endArrow=none;html=1;rounded=0;entryX=0.796;entryY=0.741;entryDx=0;entryDy=0;entryPerimeter=0;" parent="H_BK96IZtJJue5SlLHCH-1" edge="1">
          <mxGeometry width="50" height="50" relative="1" as="geometry">
            <mxPoint x="120.59904097197658" y="117.23816497813304" as="sourcePoint" />
            <mxPoint x="152.8143474554915" y="116.47115526735429" as="targetPoint" />
          </mxGeometry>
        </mxCell>
        <mxCell id="YC_wV94x8AY61sDzbHoF-27" value="" style="endArrow=none;html=1;rounded=0;entryX=0.71;entryY=0.815;entryDx=0;entryDy=0;entryPerimeter=0;" parent="H_BK96IZtJJue5SlLHCH-1" edge="1">
          <mxGeometry width="50" height="50" relative="1" as="geometry">
            <mxPoint x="116.7638854382248" y="121.0732135320268" as="sourcePoint" />
            <mxPoint x="137.4737253204844" y="124.1412523751418" as="targetPoint" />
          </mxGeometry>
        </mxCell>
        <mxCell id="YC_wV94x8AY61sDzbHoF-32" value="" style="group;flipH=1;flipV=1;rotation=-180;direction=south;" parent="H_BK96IZtJJue5SlLHCH-1" vertex="1" connectable="0">
          <mxGeometry x="53.10030357794535" y="95.37838822093862" width="19.17577766875887" height="34.515436985043834" as="geometry" />
        </mxCell>
        <mxCell id="YC_wV94x8AY61sDzbHoF-33" value="" style="endArrow=none;html=1;rounded=0;" parent="YC_wV94x8AY61sDzbHoF-32" edge="1">
          <mxGeometry width="50" height="50" relative="1" as="geometry">
            <mxPoint x="31.448275376764546" y="23.77730103414131" as="sourcePoint" />
            <mxPoint x="-1.5340622135007096" y="31.063893286539454" as="targetPoint" />
          </mxGeometry>
        </mxCell>
        <mxCell id="YC_wV94x8AY61sDzbHoF-34" value="" style="endArrow=none;html=1;rounded=0;entryX=0.796;entryY=0.741;entryDx=0;entryDy=0;entryPerimeter=0;" parent="YC_wV94x8AY61sDzbHoF-32" edge="1">
          <mxGeometry width="50" height="50" relative="1" as="geometry">
            <mxPoint x="31.06475982338937" y="18.791737914079423" as="sourcePoint" />
            <mxPoint y="19.1752427694688" as="targetPoint" />
          </mxGeometry>
        </mxCell>
        <mxCell id="YC_wV94x8AY61sDzbHoF-35" value="" style="endArrow=none;html=1;rounded=0;entryX=0.71;entryY=0.815;entryDx=0;entryDy=0;entryPerimeter=0;" parent="YC_wV94x8AY61sDzbHoF-32" edge="1">
          <mxGeometry width="50" height="50" relative="1" as="geometry">
            <mxPoint x="26.846088736262416" y="16.10720392635379" as="sourcePoint" />
            <mxPoint x="6.903279960753193" y="13.039165083238782" as="targetPoint" />
          </mxGeometry>
        </mxCell>
      </root>
    </mxGraphModel>
  </diagram>
</mxfile>
